<svg width="1280" height="263" viewBox="0 0 1280 263" fill="none" xmlns="http://www.w3.org/2000/svg">
<path d="M1269.25 103.41C1248.77 103.41 1242.71 116.011 1210.61 115.84C1113.04 115.457 1117.08 82.8917 1089.43 82.8917C1066.79 82.8917 1075.4 103.41 990.74 116.394C957.279 121.545 915.469 121.332 878.421 87.4466C835.307 48.0699 842.417 110.604 776.996 110.604C733.686 110.604 737.404 79.9544 718.814 38.5769C708.77 16.1429 709.292 106.475 638.978 108.902C583.276 110.817 580.275 32.7875 564.752 52.3269C535.661 89.0643 542.249 109.966 498.939 109.966C433.518 109.966 444.737 47.4314 401.623 86.8081C364.575 120.693 318.525 121.162 285.195 115.755C217.817 104.858 215.012 53.9019 169.55 87.5318C137.59 111.158 105.107 115.202 65.3851 115.202C33.2941 115.202 27.2282 102.772 6.74733 102.772C-10.7331 102.772 -27.8222 118.309 -59 118.309V121.374C-27.8222 121.374 -10.6679 136.912 6.74733 136.912C27.2282 136.912 33.2941 124.482 65.3851 124.482C105.107 124.482 137.59 128.526 169.55 152.152C215.012 185.782 217.817 134.826 285.195 123.929C318.525 118.522 364.575 118.991 401.623 152.876C444.737 192.253 433.518 129.718 498.939 129.718C542.249 129.718 531.552 149.13 560.643 187.357C576.427 208.088 573.557 131.08 632.586 131.336C699.703 131.634 707.726 247.678 717.314 226.393C734.99 186.931 733.686 130.314 776.996 130.314C842.417 130.314 835.307 192.849 878.421 153.472C915.469 119.587 957.149 119.629 990.74 124.525C1078.08 137.253 1067.71 158.112 1090.93 158.112C1116.04 158.112 1119.1 123.801 1210.61 125.078C1242.71 125.546 1248.77 137.508 1269.25 137.508C1286.73 137.508 1303.82 121.97 1335 121.97V118.905C1303.82 118.905 1286.67 103.368 1269.25 103.368V103.41Z" fill="url(#paint0_linear_33_993)"/>
<path opacity="0.55" d="M1190.38 113.889C1169.91 113.889 1163.84 125.995 1131.77 125.995C1092.06 125.995 1059.59 122.074 1027.64 99.0965C982.192 66.4425 982.974 127.189 912.034 126.507C792.062 125.356 797.474 63.288 773.61 63.288C758.549 63.288 761.678 119.345 720.536 116.191C682.327 113.249 662.897 -17.9206 650.574 2.07251C628.471 37.7957 621.494 120.241 578.2 120.241C512.802 120.241 524.017 59.5366 480.918 97.775C443.884 130.685 397.851 131.111 364.533 125.868C297.179 115.296 294.375 65.8031 248.929 98.457C216.98 121.434 184.51 125.356 144.802 125.356C98.8343 125.356 98.4431 117.342 77.9697 117.129C48.3027 116.83 57.8222 128.511 -51 128.511V131.495C68.711 133.2 47.5855 142.621 77.9697 142.578C98.4431 142.578 103.594 134.351 144.802 134.351C186.009 134.351 216.98 138.273 248.929 161.25C294.375 193.904 297.179 144.411 364.533 133.839C397.851 128.596 443.884 129.065 480.918 161.932C524.017 200.17 512.802 139.466 578.2 139.466C621.494 139.466 628.275 223.872 650.574 260.618C663.745 282.317 677.568 148.759 717.276 143.175C756.332 137.676 756.853 194.202 772.893 194.202C794.084 194.202 804.972 134.692 912.034 134.479C983.039 134.308 982.192 194.543 1027.64 161.889C1059.59 138.912 1092.06 134.99 1131.77 134.99C1163.84 134.99 1169.91 147.097 1190.38 147.097C1207.86 147.097 1236.68 131.367 1335 132.177V129.193C1227.74 128.468 1207.86 113.931 1190.38 113.931V113.889Z" fill="#FF23CF"/>
<defs>
<linearGradient id="paint0_linear_33_993" x1="-21.8867" y1="16.9517" x2="1207.71" y2="468.583" gradientUnits="userSpaceOnUse">
<stop offset="0.01" stop-color="#FF23CF"/>
<stop offset="0.49" stop-color="#FF6B00"/>
<stop offset="0.6" stop-color="#FFE600"/>
<stop offset="0.84" stop-color="#7A3CFF"/>
<stop offset="1" stop-color="#FF23CF"/>
</linearGradient>
</defs>
</svg>
