<svg width="41" height="56" viewBox="0 0 41 56" fill="none" xmlns="http://www.w3.org/2000/svg">
<path fill-rule="evenodd" clip-rule="evenodd" d="M23.0027 5.72207C23.9508 5.72207 24.7194 4.95352 24.7194 4.00545C24.7194 3.05739 23.9508 2.28883 23.0027 2.28883C22.0547 2.28883 21.2861 3.05739 21.2861 4.00545C21.2861 4.95352 22.0547 5.72207 23.0027 5.72207ZM27.0082 4.00545C27.0082 5.61855 26.0546 7.00893 24.6805 7.64367C24.7059 7.76127 24.7193 7.88335 24.7193 8.00857V31.3546C24.7193 32.3027 23.9508 33.0713 23.0027 33.0713C22.0547 33.0713 21.2861 32.3027 21.2861 31.3546L21.2861 8.00857C21.2861 7.88334 21.2995 7.76125 21.325 7.64365C19.9508 7.00889 18.9973 5.61853 18.9973 4.00545C18.9973 1.7933 20.7906 0 23.0027 0C25.2149 0 27.0082 1.7933 27.0082 4.00545ZM5.60764 14.8307C6.55571 14.8307 7.32426 14.0621 7.32426 13.1141C7.32426 12.166 6.55571 11.3974 5.60764 11.3974C4.65958 11.3974 3.89102 12.166 3.89102 13.1141C3.89102 14.0621 4.65958 14.8307 5.60764 14.8307ZM5.60764 17.1195C6.0111 17.1195 6.40062 17.0599 6.76788 16.9489C6.82147 17.005 6.87949 17.0581 6.9419 17.1078L14.6485 23.2417V32.9942C14.6485 33.9422 15.4171 34.7108 16.3651 34.7108C17.3132 34.7108 18.0818 33.9422 18.0818 32.9942V22.7645C18.0818 22.5347 18.0366 22.3155 17.9547 22.1152C17.9022 21.6837 17.6867 21.2718 17.3197 20.9798L9.32253 14.6146C9.50992 14.1512 9.61309 13.6447 9.61309 13.1141C9.61309 10.9019 7.81979 9.1086 5.60764 9.1086C3.39549 9.1086 1.60219 10.9019 1.60219 13.1141C1.60219 15.3262 3.39549 17.1195 5.60764 17.1195ZM35.0191 39.844L35.0191 21.4893C35.0191 20.5413 35.7877 19.7727 36.7357 19.7727C37.6838 19.7727 38.4524 20.5413 38.4524 21.4893V44.8354C38.4524 44.8656 38.4516 44.8956 38.45 44.9254C38.4516 44.9801 38.4524 45.0349 38.4524 45.09C38.4524 48.2502 35.8905 50.812 32.7303 50.812C29.5701 50.812 27.0082 48.2502 27.0082 45.09C27.0082 41.9297 29.5701 39.3679 32.7303 39.3679C33.5441 39.3679 34.3182 39.5378 35.0191 39.844ZM8.0109 45.032L8.0109 26.2258C8.0109 25.2777 8.77946 24.5092 9.72753 24.5092C10.6756 24.5092 11.4441 25.2777 11.4441 26.2258L11.4441 49.5719C11.4441 49.6565 11.438 49.7398 11.4262 49.8212C11.4381 49.9719 11.4441 50.1242 11.4441 50.278C11.4441 53.4382 8.88229 56 5.72207 56C2.56186 56 0 53.4382 0 50.278C0 47.1177 2.56186 44.5559 5.72207 44.5559C6.53587 44.5559 7.30999 44.7258 8.0109 45.032ZM8.0109 50.278C8.0109 51.542 6.98616 52.5668 5.72207 52.5668C4.45799 52.5668 3.43324 51.542 3.43324 50.278C3.43324 49.0139 4.45799 47.9891 5.72207 47.9891C6.98616 47.9891 8.0109 49.0139 8.0109 50.278ZM32.7303 47.3788C33.9944 47.3788 35.0191 46.354 35.0191 45.09C35.0191 43.8259 33.9944 42.8011 32.7303 42.8011C31.4662 42.8011 30.4415 43.8259 30.4415 45.09C30.4415 46.354 31.4662 47.3788 32.7303 47.3788ZM27.9238 29.7151C27.9238 30.6631 28.6923 31.4317 29.6404 31.4317C30.5884 31.4317 31.357 30.6631 31.357 29.7151L31.357 20.5575L35.181 16.2965C35.4605 16.3583 35.751 16.3908 36.0491 16.3908C38.2612 16.3908 40.0546 14.5975 40.0546 12.3854C40.0546 10.1732 38.2612 8.37993 36.0491 8.37993C33.837 8.37993 32.0436 10.1732 32.0436 12.3854C32.0436 13.0306 32.1962 13.6402 32.4673 14.1801L28.4772 18.6261C28.2328 18.8985 28.0915 19.2275 28.0506 19.5652C27.9688 19.7654 27.9238 19.9845 27.9238 20.2141V29.7151ZM36.0491 14.102C36.9972 14.102 37.7657 13.3334 37.7657 12.3854C37.7657 11.4373 36.9972 10.6688 36.0491 10.6688C35.101 10.6688 34.3325 11.4373 34.3325 12.3854C34.3325 13.3334 35.101 14.102 36.0491 14.102Z" fill="url(#paint0_linear_22_569)"/>
<defs>
<linearGradient id="paint0_linear_22_569" x1="-6.17984" y1="14.2164" x2="33.6369" y2="60.1496" gradientUnits="userSpaceOnUse">
<stop stop-color="#FF23CF"/>
<stop offset="0.520833" stop-color="#FF6B00"/>
<stop offset="1" stop-color="#FFE600"/>
</linearGradient>
</defs>
</svg>
